<svg width="86" height="18" viewBox="0 0 86 18" fill="none" xmlns="http://www.w3.org/2000/svg">
<g clip-path="url(#clip0_6309_11189)">
<path d="M41.0378 10.9677C40.9008 12.2515 42.2197 12.8153 43.7698 12.6937C44.0396 12.6723 44.8253 12.3008 44.9409 12.1134C44.9752 12.0575 45.2236 11.3786 45.2236 11.3359C45.2236 11.252 44.9645 10.7572 44.896 10.6767C44.4292 10.1309 43.9475 10.0619 43.2688 9.80547C42.0141 9.33204 40.2691 8.87341 39.4256 7.88711C39.2992 7.74081 38.8304 6.66738 38.794 6.47999C38.7126 6.04766 38.9695 5.96547 39.0873 5.64656C39.2093 5.31122 39.1087 5.19944 39.3935 4.81314C40.3955 3.45697 42.4552 3.29752 44.3093 3.47999C44.4977 3.49807 44.4549 3.61971 44.5448 3.64437C45.5062 3.89259 46.1142 4.18848 46.6088 4.92163C46.9899 5.48711 46.9214 5.57423 47.037 6.15451C47.0734 6.33533 47.2554 6.43231 47.2469 6.60985H44.9987C44.9581 6.05588 44.3093 5.20601 43.5578 5.12711C43.3266 5.10245 42.3802 5.09752 42.1833 5.13368C42.1126 5.14684 42.1083 5.25204 42.0719 5.26355C41.9456 5.30629 41.785 5.29149 41.6887 5.3441C41.3097 5.54957 41.4446 5.69259 41.3354 5.88985C41.2669 6.01314 41.0956 6.0756 41.0571 6.17423C40.9843 6.35012 41.3568 6.94684 41.5131 7.10793C41.7829 7.38574 42.6757 7.62738 43.0932 7.76875C44.2879 8.17314 46.1271 8.71725 46.9749 9.73971C47.219 10.0323 47.1826 10.3463 47.2961 10.6422C47.5423 11.2866 49.6234 10.8066 49.8183 10.966C49.8397 10.9841 49.7904 11.2783 49.8397 11.4016C49.8782 11.497 50.0281 11.5512 50.0752 11.6318C50.1887 11.8225 50.4713 12.3123 50.7047 12.4225C50.7946 12.4652 50.9637 12.4438 51.0922 12.4915C51.2207 12.5392 51.2678 12.6592 51.4797 12.6904C52.1221 12.789 53.0063 12.6904 53.5137 12.3649C54.4001 11.7945 54.291 10.749 53.381 10.2477C52.8436 9.95177 52.0921 9.77259 51.5119 9.55889C50.5548 9.20711 49.2766 8.86355 48.5336 8.1304C48.4951 8.09094 48.1183 7.64711 48.1097 7.61752C48.0819 7.52875 48.1354 7.41533 48.1033 7.32656C48.0797 7.25588 47.9149 7.27232 47.8956 7.20985C47.8485 7.06355 47.8506 5.58081 47.8956 5.43286C47.9127 5.37533 48.0647 5.38848 48.099 5.31451C48.1418 5.22245 48.0904 5.0893 48.1654 4.97094C48.5486 4.37423 49.161 4.07012 49.7904 3.65094C50.7689 3.51779 52.1756 3.36327 53.184 3.49149C54.0704 3.60327 55.5585 4.60273 55.7876 5.27341C55.8432 5.43451 55.7747 5.5956 55.8154 5.73204C55.8325 5.79451 56.0059 5.783 56.0252 5.84382C56.0916 6.05752 55.9845 6.37642 56.0274 6.60985H53.9398C53.7129 6.60985 53.8114 6.13149 53.775 6.00985C53.76 5.9556 53.6208 5.96218 53.5758 5.88656C53.5266 5.80437 53.5566 5.69423 53.4624 5.57916C53.0791 5.10903 51.7024 5.02848 51.0687 5.13204C51.013 5.1419 50.2658 5.7041 50.2379 5.7419C50.1009 5.92601 50.0795 6.58684 50.1394 6.79725C50.1501 6.83834 50.7946 7.33971 50.8824 7.39232C51.3791 7.69642 52.0386 7.79999 52.5888 7.9693C53.3682 8.2093 55.0489 8.81752 55.5799 9.37478C56.7061 10.5567 56.6675 12.6937 55.1966 13.6783C54.9911 13.8164 54.0255 14.2307 53.76 14.2783C51.4755 14.6893 48.7392 14.1649 47.9213 12.2959C47.8464 12.1233 47.977 11.7797 47.6194 11.783C47.1655 11.7863 47.2961 12.3666 47.2426 12.549C47.1398 12.8942 46.0629 13.7868 45.5918 14.0088C45.0972 14.2422 43.9132 14.4592 43.3244 14.4953C43.2452 14.5003 41.8899 14.3392 41.7529 14.3162C40.4982 14.1008 39.1301 12.9025 38.8132 11.9704C38.7126 11.6729 38.8325 11.2751 38.7875 10.9627H41.0356L41.0378 10.9677Z" fill="#92288E"/>
<path d="M12.5274 0.475057C13.0027 0.6904 14.1011 1.84108 14.3195 2.26191C15.1288 3.82026 15.0603 7.81478 14.9211 9.61478C14.782 11.4148 14.2189 13.1622 12.0136 14.04C11.4633 14.2586 10.32 14.4625 9.71194 14.5003C9.63272 14.5052 8.27743 14.3441 8.1404 14.3211C7.31823 14.1797 5.85374 13.2509 5.39556 12.7068C4.78964 11.9836 4.57553 10.7063 4.52843 9.86136C4.43208 8.19451 4.43636 6.17917 4.52843 4.51232C4.60765 3.0493 5.11294 1.39067 6.78939 0.496427C8.03763 -0.169326 11.1486 -0.151244 12.5274 0.475057ZM11.5597 2.36547C10.9024 1.91177 9.39934 1.78191 8.56647 1.92656C8.47654 1.94136 8.48297 2.06629 8.41874 2.0893C7.99695 2.24547 7.80853 2.26355 7.52163 2.61862C7.24972 2.95396 7.28397 3.23834 7.16407 3.57697C7.10627 3.74136 6.9307 3.87287 6.8943 4.02739C6.72944 4.72437 6.72944 9.6493 6.8943 10.3463C6.94997 10.5797 7.34606 11.5085 7.48737 11.6975C7.80425 12.1266 7.95198 12.0641 8.38234 12.2466C8.46798 12.2827 8.4637 12.4274 8.56861 12.4488C8.73133 12.4816 10.3757 12.4767 10.5791 12.4455C11.2364 12.3485 11.8958 11.6975 12.1035 11.2323C12.1635 11.0959 12.3968 10.4729 12.4311 10.3331C12.6516 9.43232 12.6174 5.08437 12.4589 4.103C12.4161 3.83834 12.0692 3.17259 11.9622 2.96711C11.8551 2.76163 11.8166 2.543 11.5618 2.36711L11.5597 2.36547Z" fill="#92288E"/>
<path d="M69.3533 14.8307C69.6124 14.9869 69.4646 15.2433 69.5717 15.4849C69.5888 15.5244 70.0406 16.0225 70.0791 16.0406C70.1712 16.0833 70.3382 16.0636 70.4666 16.1096C70.5951 16.1556 70.6422 16.2773 70.8542 16.3085C71.9397 16.4745 72.5841 16.0997 73.2436 15.5178C73.3742 14.7156 73.3913 13.9134 73.3678 13.1047C72.9995 13.246 72.3893 13.5962 72.0082 13.6636C71.7705 13.7063 69.8992 13.7227 69.6958 13.6816C69.5931 13.6603 69.5867 13.5123 69.5074 13.4827C69.2334 13.3808 68.8587 13.3414 68.6018 13.1885C68.013 12.8384 67.193 11.8685 67.0559 11.3343C66.6341 9.68548 66.7091 7.24768 67.2379 5.64494C67.4456 5.0137 67.8481 4.42357 68.6039 3.98302C69.7794 3.29754 71.9204 3.26795 73.1173 3.92713C73.2843 4.01918 73.2693 4.2559 73.6418 4.31014C74.1771 4.38905 73.8388 3.75288 74.1835 3.66411C74.4019 3.60822 75.6266 3.60001 75.7058 3.7874L75.7294 14.9606C75.4938 15.7364 75.2219 16.7047 74.3998 17.2685C72.9139 18.2877 69.4539 18.2877 68.1265 16.9874C67.5355 16.4088 67.1309 15.5655 67.2636 14.8323H69.3511L69.3533 14.8307ZM72.8946 11.3441C73.31 10.9003 73.3292 10.4121 73.3721 9.86137C73.4448 8.8948 73.5348 6.48001 72.8325 5.7485C72.7683 5.6811 72.4257 5.40165 72.3572 5.3737C72.2716 5.3359 71.261 5.1222 71.1839 5.13042C71.1004 5.14028 70.2247 5.34576 70.1262 5.38028C70.0898 5.39343 69.5588 5.78137 69.5417 5.80932C69.4753 5.91781 69.5481 6.03453 69.5117 6.14137C69.4882 6.21206 69.3212 6.19727 69.3019 6.25644C69.2527 6.4159 69.2034 7.08165 69.1884 7.30685C69.122 8.26357 69.0856 9.99946 69.3233 10.9085C69.3597 11.0433 69.9806 11.7304 70.0727 11.7715C70.184 11.8208 70.3767 11.7715 70.4987 11.811C70.7086 11.88 70.8135 11.9984 71.0704 12.0329C71.6699 12.1101 72.5477 11.7156 72.8946 11.3458V11.3441Z" fill="#92288E"/>
<path d="M25.1403 0.282745C25.697 0.378088 27.6497 1.41042 27.8402 1.78357C27.928 1.95453 27.943 2.0285 28.0436 2.20275C28.8744 3.63453 28.8786 5.80274 28.0436 7.2411C27.5619 8.07124 26.5149 8.74685 25.2774 9.01809C25.1489 9.04603 25.0504 9.1611 25.0354 9.1611H21.4492L21.3421 14.0926H19.2546C19.2439 14.0926 19.094 13.9775 19.094 13.9693V0.406033C19.094 0.397814 19.2439 0.282745 19.2546 0.282745H25.1425H25.1403ZM21.629 2.1074C21.5241 2.13042 21.447 2.18466 21.3935 2.25535L21.3614 7.12932C21.4406 7.3085 21.599 7.33316 21.8174 7.35453C22.828 7.45809 24.7914 7.44001 25.5065 6.81042C25.5771 6.74959 26.1081 5.96384 26.1317 5.89316C26.228 5.6022 26.2066 3.78905 26.106 3.48658C25.939 2.98685 25.2538 2.34412 24.6094 2.16987C24.2368 2.06795 21.9908 2.02685 21.629 2.10905V2.1074Z" fill="#92288E"/>
<path d="M29.4761 6.61149C29.5082 6.34355 29.414 6.02629 29.5018 5.7682C29.6303 5.38848 30.6044 4.18026 31.022 3.97478C31.1804 3.89752 31.3517 3.92875 31.4801 3.8745C31.5379 3.85149 31.5401 3.72327 31.69 3.67067C32.4736 3.39779 35.0343 3.38464 35.7901 3.69861C35.8393 3.71834 36.6165 4.17533 36.6529 4.20492C37.1154 4.57807 37.231 5.2767 37.4516 5.54464C37.5179 5.62519 37.7171 5.61368 37.7171 5.62519V14.0909H36.0042C35.955 14.0909 36.0406 13.4498 35.8415 13.3496C35.4754 13.3414 35.06 13.9183 34.7945 14.0646C34.7067 14.1123 34.5269 14.0778 34.4027 14.1353C34.317 14.1764 34.3192 14.3178 34.2164 14.3392C34.1479 14.3523 32.9125 14.4953 32.844 14.4937C32.6684 14.4904 32.5357 14.3704 32.3944 14.354C30.8635 14.1846 30.0499 13.7803 29.4333 12.6378C29.3519 12.4866 28.9901 11.7616 28.943 11.5792C28.806 11.0318 29.5168 9.23505 30.0413 8.85368C30.0756 8.82902 30.7243 8.4756 30.7907 8.44437C30.9406 8.37368 32.4243 7.92327 32.5228 7.92327H35.4668V6.15615C35.4668 6.10355 34.7346 5.4493 34.559 5.37697C34.3941 5.30793 33.7582 5.12053 33.6019 5.12875C33.5548 5.13204 32.7434 5.31779 32.6877 5.33752C32.632 5.35724 31.8548 5.94081 31.8206 5.98683C31.6536 6.21039 31.7606 6.6082 31.7199 6.6082H29.4718L29.4761 6.61149ZM35.4711 9.65259C35.4711 9.54903 32.9874 9.53259 32.7626 9.58683C32.6385 9.61642 32.5699 9.73313 32.4629 9.77094C32.3344 9.81697 32.1653 9.79724 32.0754 9.83998C32.0411 9.85642 31.5829 10.2838 31.5658 10.3118C31.5422 10.3529 31.2874 11.1288 31.2896 11.1731C31.2896 11.3227 31.6942 12.2203 31.827 12.3288C31.9362 12.4192 32.3708 12.5441 32.525 12.6937C33.133 12.7118 33.9595 12.8005 34.5312 12.6049C34.6896 12.5507 35.4711 11.8224 35.4711 11.7468V9.65094V9.65259Z" fill="#92288E"/>
<path d="M57.2561 6.61152C57.102 6.58193 57.1748 5.88494 57.2069 5.75179C57.4231 4.86248 58.8748 3.64111 60.0459 3.49316C60.8703 3.38795 62.718 3.44384 63.4481 3.7496C64.0562 4.00275 64.8698 4.79672 65.0903 5.28001C65.1352 5.37864 65.3365 5.79946 65.3365 5.83069V14.091H63.7842C63.6708 14.091 63.5444 13.486 63.249 13.4367C62.9128 13.6817 62.2684 14.2274 61.8359 14.3211C61.7652 14.3359 60.6305 14.4986 60.5662 14.5036C60.4956 14.5069 59.2709 14.3375 59.2045 14.3228C59.0932 14.2964 57.907 13.7375 57.7743 13.6537C57.4874 13.4745 56.7145 12.046 56.6631 11.7534C56.4982 10.8296 56.9692 9.23179 58.0077 8.66795C58.1061 8.61371 59.0396 8.20439 59.0996 8.19124C59.2859 8.15015 59.5 8.19453 59.6927 8.15343C59.8447 8.12056 60.0823 7.92659 60.1466 7.92659H63.0905V6.24165C63.0905 6.21864 62.8572 5.84056 62.84 5.81754C62.8165 5.7896 62.2705 5.35891 62.232 5.34412C62.1635 5.31782 61.2771 5.12713 61.2257 5.13206C61.0865 5.14357 60.9859 5.25206 60.8681 5.27508C60.4099 5.36713 60.1766 5.37371 59.8254 5.70412C59.4443 6.06248 59.5257 6.25152 59.2923 6.61316C58.7228 6.54248 57.77 6.7085 57.2583 6.61316L57.2561 6.61152ZM63.0905 11.7485V9.69371C63.0905 9.68549 62.9407 9.57042 62.93 9.57042H60.3607C60.3072 9.57042 60.2408 9.76111 60.1723 9.79398C60.0631 9.84494 59.8725 9.81371 59.7119 9.89261C59.2259 10.1326 58.8234 10.9841 58.924 11.4148C58.9497 11.5249 59.303 12.2154 59.3908 12.2893C60.0781 12.8614 61.6582 12.8564 62.4653 12.4406C62.8572 12.2384 62.8379 12.0148 63.0927 11.7485H63.0905Z" fill="#92288E"/>
<path d="M86 10.9677C85.7387 11.8767 85.4839 13.0241 84.4627 13.6488C83.4414 14.2734 81.4759 14.5348 80.1677 14.3375C79.9536 14.3047 79.8915 14.1699 79.7095 14.114C78.1572 13.6241 78.3221 13.5189 77.5856 12.452C77.5406 12.3879 77.3501 12.3879 77.3265 12.309C77.273 12.1331 77.1402 11.6778 77.1081 11.5085C76.9454 10.6208 76.9518 7.05205 77.1188 6.16602C77.2023 5.72383 77.9945 4.47123 78.4805 4.15232C78.9045 3.87616 79.3263 3.77424 79.8144 3.64766C79.8979 3.62629 79.8958 3.50629 79.9729 3.49314C80.3047 3.43397 82.4415 3.45698 82.8119 3.51287C84.4091 3.7578 85.2891 5.06958 85.5953 6.14301C85.621 6.23506 85.7858 6.31397 85.7858 6.32547V9.57205H79.5232C79.5125 9.57205 79.3627 9.68712 79.3627 9.69533V11.3392C79.6624 11.6038 79.6217 11.9408 79.9814 12.2022C80.1763 12.3436 81.2875 12.7167 81.5465 12.6953C81.8056 12.674 81.9169 12.526 82.1182 12.4701C82.6214 12.3304 82.7134 12.4882 83.163 12.0394C83.512 11.691 83.5677 10.9693 83.6426 10.9693H85.9978L86 10.9677ZM79.3627 6.40602C79.2663 6.7726 79.3627 7.61753 79.3627 8.04986C79.3627 8.05807 79.5125 8.17314 79.5232 8.17314H83.5377V6.48821C83.2423 6.23671 83.2744 5.81917 82.9703 5.56766C82.7305 5.3704 82.3901 5.36712 82.1246 5.28821C82.024 5.25862 82.0732 5.14355 81.887 5.12547C81.4459 5.08109 80.5681 5.19616 80.187 5.37369C80.1506 5.39013 79.6538 5.84547 79.6346 5.87506C79.5982 5.93424 79.3712 6.37807 79.3627 6.40602Z" fill="#92288E"/>
<path d="M3.82161 15.0246C3.69101 15.1611 3.65889 15.4077 3.52615 15.5392C3.20285 15.8597 2.46846 16.4877 2.07879 16.6915C1.99101 16.7375 1.98244 16.8657 1.8861 16.8855C1.71695 16.9216 1.06393 16.9019 0.892643 16.8427C0.804859 16.8115 0.0833218 16.2411 0.055488 16.1704C-0.107233 15.7463 0.111156 15.2515 0.271735 14.8504L4.28837 13.1227C4.69089 12.9255 5.09126 13.4893 5.06771 13.7145C5.02489 14.1205 4.10852 14.7222 3.81947 15.0246H3.82161Z" fill="#92288E"/>
<path d="M15.238 4.88549L16.5377 0.417544C16.6426 0.161106 17.6917 0.330421 18.0236 0.282749C17.9957 0.616448 18.0664 0.976448 18.0171 1.30686C17.9037 2.06302 17.9037 2.72056 17.8073 3.44713C17.7431 3.93535 17.3641 4.36932 17.4862 4.88549H15.238Z" fill="#92288E"/>
<path d="M11.5639 6.3074C12.1291 7.00931 11.8165 8.09753 11.2127 8.74027C10.9622 9.00657 10.2193 9.45205 10.0587 9.65918C10.0009 9.73315 9.71829 10.4712 9.56413 10.3923C9.40141 10.0948 9.15947 9.70685 8.91967 9.44712C8.73126 9.24493 7.55153 8.35726 7.53012 8.28C7.48302 8.10411 7.31388 7.51397 7.30531 7.39233C7.28604 7.07836 7.7164 6.14959 8.00544 5.95233C8.23239 5.79781 9.24083 5.39178 9.50632 5.3737C10.018 5.33753 9.97736 5.51014 10.2086 5.58082C10.7481 5.74356 11.2127 5.87507 11.5596 6.30904L11.5639 6.3074ZM10.2814 8.14849C10.4034 8.08767 10.8338 7.5189 10.8488 7.38246C10.8766 7.12931 10.4698 6.45698 10.1294 6.38137C8.90254 6.10685 8.17672 6.97808 8.55141 7.83945C8.64776 8.05972 9.2494 8.32274 9.51917 8.33918C9.55985 8.34082 10.2471 8.16657 10.2814 8.14849Z" fill="#92288E"/>
<path d="M10.2729 4.58957C10.472 4.65862 10.7675 4.89533 10.8745 4.94793C11.0394 5.03177 11.3541 4.84766 11.2771 5.1304C10.8852 5.2356 10.6733 4.97916 10.4271 4.92163C10.153 4.85752 9.38008 4.85259 9.0889 4.88875C8.73134 4.93314 8.50439 5.23067 8.06761 5.1304C7.99053 4.84601 8.30527 5.03012 8.47013 4.94793C8.52152 4.92163 8.53008 4.79999 8.60716 4.76711C8.88764 4.64711 9.36295 4.55999 9.64129 4.40875C9.84041 4.48601 10.0738 4.52053 10.2729 4.58957Z" fill="#92288E"/>
<path d="M9.18953 6.85808C9.68197 6.75123 9.68197 7.37425 9.18953 7.2674C8.97328 7.22137 8.97328 6.90411 9.18953 6.85808Z" fill="#92288E"/>
<path d="M9.9388 6.85808C10.4312 6.75123 10.4312 7.37425 9.9388 7.2674C9.72255 7.22137 9.72255 6.90411 9.9388 6.85808Z" fill="#92288E"/>
</g>
<defs>
<clipPath id="clip0_6309_11189">
<rect width="86" height="18" fill="white"/>
</clipPath>
</defs>
</svg>
